<?xml version="1.0" encoding="UTF-8"?>
<svg xmlns="http://www.w3.org/2000/svg" xmlns:xlink="http://www.w3.org/1999/xlink" width="512pt" height="512pt" viewBox="0 0 512 512" version="1.1">
<g id="surface1">
<path style=" stroke:none;fill-rule:nonzero;fill:rgb(94.901961%,94.901961%,94.901961%);fill-opacity:1;" d="M 140.5 50.5 L 372 50.5 C 421.707031 50.5 462 90.792969 462 140.5 L 462 372 C 462 421.707031 421.707031 462 372 462 L 140.5 462 C 90.792969 462 50.5 421.707031 50.5 372 L 50.5 140.5 C 50.5 90.792969 90.792969 50.5 140.5 50.5 Z M 140.5 50.5 "/>
<path style=" stroke:none;fill-rule:nonzero;fill:rgb(100%,98.823529%,22.745098%);fill-opacity:1;" d="M 382.425781 382.925781 C 357.320312 408.027344 325.339844 425.125 290.519531 432.050781 C 255.699219 438.976562 219.609375 435.421875 186.808594 421.835938 C 154.007812 408.25 125.976562 385.242188 106.25 355.726562 C 86.527344 326.207031 76 291.503906 76 256 C 76 220.5 86.527344 185.792969 106.25 156.273438 C 125.976562 126.757812 154.007812 103.75 186.808594 90.164062 C 219.609375 76.578125 255.699219 73.023438 290.519531 79.949219 C 325.339844 86.875 357.320312 103.972656 382.425781 129.074219 L 331.65625 179.84375 C 316.59375 164.78125 297.402344 154.523438 276.511719 150.371094 C 255.621094 146.214844 233.964844 148.347656 214.285156 156.496094 C 194.605469 164.648438 177.785156 178.453125 165.949219 196.164062 C 154.117188 213.875 147.800781 234.699219 147.800781 256 C 147.800781 277.300781 154.117188 298.125 165.949219 315.835938 C 177.785156 333.546875 194.605469 347.351562 214.285156 355.503906 C 233.964844 363.652344 255.621094 365.785156 276.511719 361.628906 C 297.402344 357.476562 316.59375 347.21875 331.65625 332.15625 Z M 382.425781 382.925781 "/>
<path style=" stroke:none;fill-rule:nonzero;fill:rgb(100%,99.215686%,53.333333%);fill-opacity:1;" d="M 382.425781 382.925781 C 357.320312 408.027344 325.339844 425.125 290.519531 432.050781 C 255.699219 438.976562 219.609375 435.421875 186.808594 421.835938 C 154.007812 408.25 125.976562 385.242188 106.25 355.726562 C 86.527344 326.207031 76 291.503906 76 256 C 76 220.5 86.527344 185.792969 106.25 156.273438 C 125.976562 126.757812 154.007812 103.75 186.808594 90.164062 C 219.609375 76.578125 255.699219 73.023438 290.519531 79.949219 C 325.339844 86.875 357.320312 103.972656 382.425781 129.074219 L 346.964844 164.535156 C 328.871094 146.449219 305.824219 134.128906 280.734375 129.136719 C 255.644531 124.148438 229.636719 126.707031 206 136.496094 C 182.367188 146.289062 162.164062 162.867188 147.949219 184.136719 C 133.738281 205.410156 126.152344 230.417969 126.152344 256 C 126.152344 281.582031 133.738281 306.589844 147.949219 327.863281 C 162.164062 349.132812 182.367188 365.710938 206 375.503906 C 229.636719 385.292969 255.644531 387.851562 280.734375 382.863281 C 305.824219 377.871094 328.871094 365.550781 346.964844 347.464844 Z M 382.425781 382.925781 "/>
</g>
</svg>
