<svg width="1024" height="1024" viewBox="0 0 1024 1024" fill="none" xmlns="http://www.w3.org/2000/svg">
<rect x="101" y="101" width="823" height="823" rx="180" fill="#F2F2F2"/>
<path d="M764.851 765.851C714.644 816.058 650.677 850.25 581.037 864.102C511.398 877.954 439.215 870.845 373.617 843.673C308.018 816.501 251.95 770.487 212.502 711.45C173.055 652.412 152 583.004 152 512C152 440.997 173.055 371.588 212.502 312.55C251.95 253.513 308.018 207.499 373.617 180.327C439.215 153.155 511.398 146.046 581.037 159.898C650.677 173.75 714.644 207.942 764.851 258.149L663.311 359.689C633.187 329.565 594.806 309.05 553.022 300.739C511.239 292.428 467.929 296.693 428.57 312.996C389.211 329.299 355.57 356.908 331.901 392.33C308.233 427.753 295.6 469.398 295.6 512C295.6 554.602 308.233 596.247 331.901 631.67C355.57 667.092 389.211 694.701 428.57 711.004C467.929 727.307 511.239 731.572 553.022 723.261C594.806 714.95 633.187 694.435 663.311 664.311L764.851 765.851Z" fill="#FFFC3A"/>
<path d="M764.851 765.851C714.644 816.058 650.677 850.25 581.037 864.102C511.398 877.954 439.215 870.845 373.617 843.673C308.018 816.501 251.95 770.487 212.502 711.45C173.055 652.412 152 583.004 152 512C152 440.997 173.055 371.588 212.502 312.55C251.95 253.513 308.018 207.499 373.617 180.327C439.215 153.155 511.398 146.046 581.037 159.898C650.677 173.75 714.644 207.942 764.851 258.149L693.926 329.074C657.746 292.895 611.651 268.257 561.469 258.275C511.287 248.293 459.272 253.416 412.001 272.996C364.731 292.576 324.328 325.734 295.902 368.276C267.476 410.819 252.304 460.835 252.304 512C252.304 563.165 267.476 613.181 295.902 655.724C324.328 698.266 364.731 731.424 412.001 751.004C459.272 770.584 511.287 775.707 561.469 765.725C611.651 755.743 657.746 731.105 693.926 694.926L764.851 765.851Z" fill="#FFFD88"/>
</svg>
